<svg width="14" height="14" viewBox="0 0 14 14" fill="none" xmlns="http://www.w3.org/2000/svg">
<circle cx="7" cy="7" r="6" stroke="black" stroke-width="0.928571"/>
<path d="M6.77783 3.07227C6.95329 3.07227 7.10189 3.13493 7.22363 3.26025C7.34896 3.382 7.41162 3.52881 7.41162 3.70068C7.41162 3.87614 7.34896 4.02653 7.22363 4.15186C7.10189 4.2736 6.95329 4.33447 6.77783 4.33447C6.60596 4.33447 6.45736 4.2736 6.33203 4.15186C6.21029 4.02653 6.14941 3.87614 6.14941 3.70068C6.14941 3.52523 6.21029 3.37663 6.33203 3.25488C6.45378 3.13314 6.60238 3.07227 6.77783 3.07227ZM6.21924 11V6.10693H5.42969V5.24756H7.23975V11H6.21924Z" fill="black"/>
</svg>
